#!OML:ASF E:/inclinewalkrobotboard/Project1/Captureday1/Session1/subject1.ASF
:FULLY-SPECIFIED
:DEGREES
186
root 0 0 0 -2.2944147080537096 -3.936018690735238 0.4687206010442608
lowerback 7.398301188708723 1.5462780664964964 -2.4769569170936703
upperback 1.7641810747761322 1.9236273546083578 -0.037355392620061934
thorax -2.348886858887402 1.010029597364968 1.2485816034897157
lowerneck -9.387971157315462 -5.458665917391745 -6.292482131734224
upperneck 31.32420958416573 -8.593432096347335 5.814112219404212
head 11.69448433812732 -3.915751361762623 1.917828894917189
rclavicle -2.7127958500567485E-15 1.4049307293892152E-15
rhumerus -8.625217573959077 2.50857756234688 -79.55655833753086
rradius 50.08380370063975
rwrist -21.124446147602715
rhand -41.83371239095846 15.550620617515774
rfingers 7.125019999999943
rthumb -14.69277180318744 -13.871147714887034
lclavicle -6.3769200110987045E-15 6.916625288133836E-16
lhumerus -30.402640518384253 11.307860935561125 78.12049389838495
lradius 25.008242662181384
lwrist -4.504435211669314
lhand -23.92014889414596 22.012812137053714
lfingers 7.12501999999995
lthumb 2.5541794195696053 51.94766786543543
rfemur -9.240932239017832 7.915365789963099 33.31417082386394
rtibia 32.703269688726266
rfoot -16.30526051800091 -9.453460110575643
rtoes 6.744588374919509
lfemur -25.94468794142694 3.839352303853028 -13.773374722485368
ltibia 60.312502114188895
lfoot -4.231689124339897 -5.795712688687077
ltoes -7.386467958211084
187
root 0 0 0 -2.2696098826993136 -3.905096717204689 0.4764087852535068
lowerback 7.401986418756203 1.5598005856013932 -2.4803839581452505
upperback 1.7975978374333161 1.9405797296338916 -0.04621558992907182
thorax -2.314908718788876 1.019534742130683 1.2389970274635003
lowerneck -9.315784124191383 -5.4700682167428765 -6.326400048264521
upperneck 31.239603083513856 -8.606250038325454 5.868984034469942
head 11.665576605100636 -3.923128165269616 1.9383263788226883
rclavicle -2.9626370021306716E-15 1.5296304819990533E-15
rhumerus -9.119821856814738 3.1117599455614213 -79.67608448792085
rradius 50.77805422394263
rwrist -21.290990698388633
rhand -41.81423015898892 15.359859426990376
rfingers 7.125019999999946
rthumb -14.678478725626606 -14.066132115345015
lclavicle -6.570416157907784E-15 9.01561485485916E-16
lhumerus -30.477544648484432 11.330948466100491 78.01174176040112
lradius 24.967992654605258
lwrist -4.56111749661405
lhand -23.922224874036075 22.024505317225895
lfingers 7.12501999999995
lthumb 2.5522602702590804 51.95899626932618
rfemur -5.087197097230357 8.120170606327367 33.78366454173837
rtibia 30.177623325857198
rfoot -18.204764132336447 -9.35331241660796
rtoes 6.131388458965736
lfemur -26.91856988688205 3.7271292688483566 -13.433548005596132
ltibia 59.272621292915964
lfoot -4.724914046984409 -5.089694882973225
ltoes -7.563150166253594
188
root 0 0 0 -2.2330476891601343 -3.8662764746821825 0.487011660803169
lowerback 7.419769161972612 1.5759189901887984 -2.4894345511812834
upperback 1.8411445742112873 1.9599378741561178 -0.056974855547744174
thorax -2.27858551871453 1.0305427429590037 1.229830291209053
lowerneck -9.230198359109023 -5.487573311287294 -6.3721854784757985
upperneck 31.134154586010116 -8.625280145257324 5.946709375427089
head 11.629884514677107 -3.933778197042113 1.9676421815059286
rclavicle -3.129505016685311E-15 1.6695315468455098E-15
rhumerus -9.56083309463014 3.6426561490492038 -79.78995062333188
rradius 51.368556783711156
rwrist -21.416915349037016
rhand -41.811977371881255 15.224285523654306
rfingers 7.125019999999949
rthumb -14.680061992274581 -14.204687925131562
lclavicle -6.7221361240308725E-15 1.1382266833714507E-15
lhumerus -30.577910989541895 11.394327124251422 77.85032886595471
lradius 24.91910165390277
lwrist -4.631567912303899
lhand -23.957421185047522 22.020726921966787
lfingers 7.125019999999952
lthumb 2.5184920425128263 51.95528007636312
rfemur -1.53794654430191 8.27673792209925 34.22851358765808
rtibia 28.233796117187723
rfoot -19.714826591206428 -9.240270897463194
rtoes 5.525914725646679
lfemur -28.192647888255593 3.408686687640232 -13.16699475268478
ltibia 56.744429024262594
lfoot -5.14589066767106 -4.385710842111495
ltoes -7.5133308611710685
189
root 0 0 0 -2.192982765519285 -3.824855270567058 0.49824158204082597
lowerback 7.444520540669966 1.5924187668132603 -2.5014560310669998
upperback 1.8859754497718968 1.979318345079355 -0.06797941148215791
thorax -2.245116735534228 1.0415845215686506 1.221702500253945
lowerneck -9.147870897958832 -5.507503927220803 -6.421505256504777
upperneck 31.029533933878103 -8.646698679229281 6.030811610292292
head 11.595105653766023 -3.945486303197588 1.9994706034769618
rclavicle -3.1357093723061244E-15 1.7588566231773173E-15
rhumerus -9.893111571711476 4.027759292181099 -79.88334123722571
rradius 51.75225574165224
rwrist -21.490989604056175
rhand -41.820233299284986 15.165149908562327
rfingers 7.12501999999995
rthumb -14.690462870878385 -14.265714902088952
lclavicle -6.7630136116158344E-15 1.3143666034981932E-15
lhumerus -30.690155284143703 11.490238520750664 77.65796195104187
lradius 24.86880294425572
lwrist -4.704876500650813
lhand -24.023320331004694 22.00056017644528
lfingers 7.125019999999953
lthumb 2.4552503975330446 51.93567027302749
rfemur 0.6923497273684203 8.377918946302986 34.49363478852133
rtibia 27.070663778540194
rfoot -20.59378334430809 -9.183952709035285
rtoes 5.031627899318222
lfemur -29.61795199105535 2.9238949348307273 -12.953475659378928
ltibia 53.06634734867793
lfoot -5.4750221707610125 -3.72423206131427
ltoes -7.272749176144219
190
root 0 0 0 -2.157884899563836 -3.787251804882227 0.5073357742137423
lowerback 7.470824471631183 1.6062545538194815 -2.513237967459198
upperback 1.9217877750507113 1.9953265093787036 -0.07688278687855488
thorax -2.222349505302863 1.0506275936782108 1.2158644915945547
lowerneck -9.089574572064553 -5.525416466735059 -6.463411296503477
upperneck 30.946916042983766 -8.665282960745461 6.102878060331152
head 11.568782452955826 -3.9553806847534263 2.026948186927562
rclavicle -2.976613492356711E-15 1.775732347170096E-15
rhumerus -10.07457933204557 4.2141458957489535 -79.94386318896227
rradius 51.86832063309907
rwrist -21.508269317260897
rhand -41.83368449286739 15.188069852637291
rfingers 7.125019999999951
rthumb -14.703973855779946 -14.243626886888965
lclavicle -6.688970820142777E-15 1.3969132853691093E-15
lhumerus -30.799943376685576 11.603782144035154 77.4605898034903
lradius 24.82386468523841
lwrist -4.770475343827623
lhand -24.110705907676103 21.9679030303707
lfingers 7.125019999999954
lthumb 2.37142066831617 51.903983306626486
rfemur 1.8555757421002723 8.435051466032792 34.60705610435571
rtibia 26.532312190427525
rfoot -20.968968448454824 -9.167990587453147
rtoes 4.618566120804092
lfemur -30.83810744381963 2.3656175551750938 -12.831238372318065
ltibia 48.97714688987718
lfoot -5.633984847121865 -3.2821719156704834
ltoes -6.882337376530893
191
root 0 0 0 -2.123949227036058 -3.7485343024495275 0.5133563130826497
lowerback 7.510716088153545 1.6168895772186438 -2.525960892079988
upperback 1.9452340628220917 2.0070611275551427 -0.08235922607870716
thorax -2.221332346112253 1.0570248917003282 1.2142171715616517
lowerneck -9.075100882360704 -5.541897262253849 -6.495049047157287
upperneck 30.886347199442667 -8.679269818315642 6.164918046660753
head 11.552530713000468 -3.962423707827365 2.0515982128870798
rclavicle -2.5742402925807223E-15 1.7246998303113208E-15
rhumerus -10.058678538602482 4.112615910114398 -79.9716787305524
rradius 51.5696889515167
rwrist -21.43471584566373
rhand -41.86704862213037 15.344848896084855
rfingers 7.125019999999951
rthumb -14.733420307523534 -14.08563255685554
lclavicle -6.473671252848097E-15 1.4124192330433034E-15
lhumerus -30.945709051232832 11.789401971930857 77.1824718258037
lradius 24.774571711145434
lwrist -4.841989302547349
lhand -24.271654024509342 21.902395841718167
lfingers 7.125019999999956
lthumb 2.217024323347159 51.84048795030762
rfemur 2.4765066435201537 8.46025383821286 34.64624694490463
rtibia 26.504458540255172
rfoot -20.954958218842403 -9.133982255392398
rtoes 4.069366051151206
lfemur -31.845263352686956 1.6105990021602157 -12.887165026119604
ltibia 43.666255541012646
lfoot -5.435778847329149 -3.247388037253108
ltoes -6.102491088023838
192
root 0 0 0 -2.111525690072318 -3.7321888005476245 0.5127791445535741
lowerback 7.539127840123056 1.6181408626402642 -2.5309553745039053
upperback 1.9429487894230606 2.0078481769835514 -0.08154378215608671
thorax -2.241231365976775 1.0571394153316866 1.2168474030425105
lowerneck -9.109041257290736 -5.546527137004357 -6.497247866296721
upperneck 30.874292976716283 -8.679355558968807 6.180790187464511
head 11.552557460007884 -3.9620877982586253 2.059135716115967
rclavicle -2.2586274944807006E-15 1.6755387183915598E-15
rhumerus -9.87723027850259 3.8384539150660766 -79.95223368254675
rradius 51.160269526914696
rwrist -21.320801640891126
rhand -41.90777852300896 15.50611317779042
rfingers 7.12501999999995
rthumb -14.768987580894379 -13.921315032665557
lclavicle -6.284892632648124E-15 1.3769208301102042E-15
lhumerus -31.005184425916593 11.877969571948311 77.06204545322862
lradius 24.75016444707056
lwrist -4.877566410478528
lhand -24.342778783743015 21.869092357830127
lfingers 7.125019999999957
lthumb 2.1488590965152223 51.8084152784549
rfemur 2.4596031976370916 8.44795196290532 34.630535569278024
rtibia 26.839804926356763
rfoot -20.706045681018622 -9.089907943101732
rtoes 3.738994924818194
lfemur -32.008043345122864 1.258411766223599 -13.078638633636768
ltibia 41.26286568885391
lfoot -5.061748217392629 -3.5709438789760615
ltoes -5.483629594887205
193
root 0 0 0 -2.1059318058507692 -3.72438221609366 0.5099243699648752
lowerback 7.56588665549717 1.6156305636932289 -2.533681599951456
upperback 1.9314852254192654 2.004093708502854 -0.07812044198558976
thorax -2.27011866541255 1.0546950634610273 1.2217485581667504
lowerneck -9.161643236387597 -5.546931144860269 -6.4883540494716145
upperneck 30.88062709517422 -8.67426058392815 6.180758202649561
head 11.558627888541224 -3.959040127401674 2.0608792133232865
rclavicle -1.9874859856715228E-15 1.6190390667932737E-15
rhumerus -9.613990140458931 3.463376118477437 -79.91356924120568
rradius 50.65897297180572
rwrist -21.186993242568064
rhand -41.953830758154275 15.676244691614487
rfingers 7.1250199999999495
rthumb -14.809398092582853 -13.747251542081937
lclavicle -6.1222047888599294E-15 1.3197909948567369E-15
lhumerus -31.034837762292934 11.93809471522479 76.99396667970784
lradius 24.738172397775273
lwrist -4.895319544714334
lhand -24.392252849441306 21.843387267159827
lfingers 7.125019999999957
lthumb 2.1014957361100643 51.78367694332698
rfemur 1.9888926195321859 8.406944034321223 34.57439616927596
rtibia 27.51272198255164
rfoot -20.256877218527734 -9.061084470368865
rtoes 3.538514830556481
lfemur -31.83546685775481 1.0621243775540847 -13.376612197243356
ltibia 39.94640449473749
lfoot -4.608244989885754 -4.07865149533003
ltoes -4.877025924698132
